<svg width="79" height="62" viewBox="0 0 79 62" fill="none" xmlns="http://www.w3.org/2000/svg">
<g clip-path="url(#clip0_111_123)">
<path d="M26.7756 33.9563C31.3562 24.7762 38.3678 17.0294 47.0473 11.5597L40.1128 0.641717C40.0328 0.451528 39.8984 0.289189 39.7267 0.175039C39.5551 0.0608888 39.3528 0 39.1467 0C38.9406 0 38.7384 0.0608888 38.5667 0.175039C38.3951 0.289189 38.2606 0.451528 38.1806 0.641717L0.23339 60.4535C-0.312721 61.3091 0.145062 61.5602 1.1334 61.5602H19.2362C19.2895 51.8573 21.8895 42.3391 26.7756 33.9563Z" fill="white"/>
<path d="M49.4084 18.3613C45.6901 16.3251 37.664 23.8647 31.4818 35.2104C25.3151 46.5414 23.3229 57.3858 27.0418 59.4363C29.7418 60.8969 34.2862 57.0458 39.1401 50.7156V36.2285C39.1401 34.7236 40.0846 33.8965 40.7923 35.2104L44.8346 42.8521C44.8934 42.7636 44.9229 42.6899 44.9823 42.6014C51.164 31.2557 53.1412 20.4121 49.4084 18.3613Z" fill="white"/>
<path d="M78.0901 60.4536L62.7751 36.3036C61.3201 41.2059 59.3467 45.9391 56.8884 50.423C55.5701 52.8324 54.1267 55.1714 52.5651 57.4308L55.4573 61.5619H77.1895C78.1784 61.5619 78.6356 61.3091 78.0901 60.4536Z" fill="white"/>
</g>
<defs>
<clipPath id="clip0_111_123">
<rect width="78.3232" height="61.5619" fill="white"/>
</clipPath>
</defs>
</svg>
